# Blender v2.90.1 OBJ File: ''
# www.blender.org
v -0.150000 0.050000 0.050000
v -0.150000 -0.050000 -0.050000
v -0.150000 -0.050000 0.050000
v -0.150000 0.050000 -0.050000
v -0.050000 -0.050000 0.050000
v -0.050000 -0.150000 -0.050000
v -0.050000 -0.150000 0.050000
v -0.050000 -0.050000 -0.050000
v -0.050000 0.050000 0.150000
v -0.050000 -0.050000 0.150000
v -0.050000 0.050000 0.050000
v -0.050000 0.050000 -0.050000
v -0.050000 -0.050000 -0.150000
v -0.050000 0.050000 -0.150000
v -0.050000 0.150000 0.050000
v -0.050000 0.150000 -0.050000
v 0.050000 -0.150000 0.050000
v 0.050000 -0.150000 -0.050000
v 0.050000 -0.050000 0.050000
v 0.050000 -0.050000 -0.050000
v 0.050000 -0.050000 0.150000
v 0.050000 0.050000 0.150000
v 0.050000 0.050000 0.050000
v 0.050000 -0.050000 -0.150000
v 0.050000 0.050000 -0.050000
v 0.050000 0.050000 -0.150000
v 0.050000 0.150000 0.050000
v 0.050000 0.150000 -0.050000
v 0.150000 -0.050000 0.050000
v 0.150000 -0.050000 -0.050000
v 0.150000 0.050000 0.050000
v 0.150000 0.050000 -0.050000
v 0.050000 -0.050000 0.150000
v -0.050000 0.050000 0.150000
v -0.050000 -0.050000 0.150000
v 0.050000 0.050000 0.150000
v -0.050000 -0.050000 0.050000
v -0.150000 0.050000 0.050000
v -0.150000 -0.050000 0.050000
v -0.050000 0.050000 0.050000
v 0.050000 -0.150000 0.050000
v -0.050000 -0.150000 0.050000
v 0.050000 -0.050000 0.050000
v 0.050000 0.050000 0.050000
v -0.050000 0.150000 0.050000
v 0.050000 0.150000 0.050000
v 0.150000 -0.050000 0.050000
v 0.150000 0.050000 0.050000
v -0.150000 -0.050000 -0.050000
v -0.150000 0.050000 -0.050000
v -0.050000 -0.050000 -0.050000
v -0.050000 0.050000 -0.050000
v -0.050000 -0.150000 -0.050000
v 0.050000 -0.150000 -0.050000
v 0.050000 -0.050000 -0.050000
v -0.050000 0.150000 -0.050000
v 0.050000 0.050000 -0.050000
v 0.050000 0.150000 -0.050000
v 0.150000 -0.050000 -0.050000
v 0.150000 0.050000 -0.050000
v -0.050000 -0.050000 -0.150000
v -0.050000 0.050000 -0.150000
v 0.050000 -0.050000 -0.150000
v 0.050000 0.050000 -0.150000
v -0.050000 -0.150000 -0.050000
v 0.050000 -0.150000 0.050000
v -0.050000 -0.150000 0.050000
v 0.050000 -0.150000 -0.050000
v -0.050000 -0.050000 0.050000
v 0.050000 -0.050000 0.150000
v -0.050000 -0.050000 0.150000
v 0.050000 -0.050000 0.050000
v -0.150000 -0.050000 -0.050000
v -0.150000 -0.050000 0.050000
v -0.050000 -0.050000 -0.050000
v 0.050000 -0.050000 -0.050000
v 0.150000 -0.050000 0.050000
v 0.150000 -0.050000 -0.050000
v -0.050000 -0.050000 -0.150000
v 0.050000 -0.050000 -0.150000
v -0.050000 0.050000 0.150000
v 0.050000 0.050000 0.150000
v -0.050000 0.050000 0.050000
v 0.050000 0.050000 0.050000
v -0.150000 0.050000 0.050000
v -0.150000 0.050000 -0.050000
v -0.050000 0.050000 -0.050000
v 0.150000 0.050000 0.050000
v 0.050000 0.050000 -0.050000
v 0.150000 0.050000 -0.050000
v -0.050000 0.050000 -0.150000
v 0.050000 0.050000 -0.150000
v -0.050000 0.150000 0.050000
v 0.050000 0.150000 0.050000
v -0.050000 0.150000 -0.050000
v 0.050000 0.150000 -0.050000
v -0.150000 0.050000 0.050000
v -0.150000 -0.050000 -0.050000
v -0.050000 -0.050000 0.050000
v -0.050000 -0.050000 0.050000
v -0.050000 -0.050000 0.050000
v -0.050000 -0.150000 -0.050000
v -0.050000 -0.050000 -0.050000
v -0.050000 0.050000 0.150000
v -0.050000 0.050000 0.050000
v -0.050000 0.050000 -0.050000
v -0.050000 0.050000 -0.050000
v -0.050000 0.050000 -0.050000
v -0.050000 -0.050000 -0.150000
v -0.050000 0.150000 0.050000
v 0.050000 -0.050000 0.050000
v 0.050000 -0.050000 0.050000
v 0.050000 -0.050000 0.050000
v 0.050000 -0.150000 -0.050000
v 0.050000 -0.050000 -0.050000
v 0.050000 0.050000 0.150000
v 0.050000 0.050000 0.050000
v 0.050000 0.050000 -0.050000
v 0.050000 0.050000 -0.050000
v 0.050000 0.050000 -0.050000
v 0.050000 -0.050000 -0.150000
v 0.050000 0.150000 0.050000
v 0.150000 0.050000 0.050000
v 0.150000 -0.050000 -0.050000
v 0.050000 -0.050000 0.150000
v -0.050000 0.050000 0.150000
v -0.050000 -0.050000 0.050000
v -0.050000 -0.050000 0.050000
v -0.050000 -0.050000 0.050000
v -0.150000 0.050000 0.050000
v -0.050000 0.050000 0.050000
v 0.050000 -0.150000 0.050000
v 0.050000 -0.050000 0.050000
v 0.050000 0.050000 0.050000
v 0.050000 0.050000 0.050000
v 0.050000 0.050000 0.050000
v -0.050000 0.150000 0.050000
v 0.150000 -0.050000 0.050000
v -0.050000 -0.050000 -0.050000
v -0.050000 -0.050000 -0.050000
v -0.050000 -0.050000 -0.050000
v -0.150000 0.050000 -0.050000
v -0.050000 0.050000 -0.050000
v 0.050000 -0.150000 -0.050000
v 0.050000 -0.050000 -0.050000
v 0.050000 0.050000 -0.050000
v 0.050000 0.050000 -0.050000
v 0.050000 0.050000 -0.050000
v -0.050000 0.150000 -0.050000
v 0.150000 -0.050000 -0.050000
v 0.050000 -0.050000 -0.150000
v -0.050000 0.050000 -0.150000
v -0.050000 -0.150000 -0.050000
v 0.050000 -0.150000 0.050000
v -0.050000 -0.050000 0.050000
v -0.050000 -0.050000 0.050000
v -0.050000 -0.050000 0.050000
v 0.050000 -0.050000 0.150000
v 0.050000 -0.050000 0.050000
v -0.150000 -0.050000 -0.050000
v -0.050000 -0.050000 -0.050000
v 0.050000 -0.050000 -0.050000
v 0.050000 -0.050000 -0.050000
v 0.050000 -0.050000 -0.050000
v 0.150000 -0.050000 0.050000
v -0.050000 -0.050000 -0.150000
v -0.050000 0.050000 0.050000
v -0.050000 0.050000 0.050000
v -0.050000 0.050000 0.050000
v 0.050000 0.050000 0.150000
v 0.050000 0.050000 0.050000
v -0.150000 0.050000 -0.050000
v -0.050000 0.050000 -0.050000
v 0.050000 0.050000 -0.050000
v 0.050000 0.050000 -0.050000
v 0.050000 0.050000 -0.050000
v 0.150000 0.050000 0.050000
v -0.050000 0.050000 -0.150000
v -0.050000 0.150000 -0.050000
v 0.050000 0.150000 0.050000
vt 0.841797 0.500000
vt 0.841797 0.500000
vt 0.841797 0.500000
vt 0.841797 0.500000
vt 0.841797 0.500000
vt 0.841797 0.500000
vt 0.216797 0.500000
vt 0.216797 0.500000
vt 0.216797 0.500000
vt 0.216797 0.500000
vt 0.216797 0.500000
vt 0.216797 0.500000
vt 0.923828 0.500000
vt 0.923828 0.500000
vt 0.923828 0.500000
vt 0.923828 0.500000
vt 0.923828 0.500000
vt 0.923828 0.500000
vt 0.716797 0.500000
vt 0.716797 0.500000
vt 0.716797 0.500000
vt 0.716797 0.500000
vt 0.716797 0.500000
vt 0.716797 0.500000
vt 0.423828 0.500000
vt 0.423828 0.500000
vt 0.423828 0.500000
vt 0.423828 0.500000
vt 0.423828 0.500000
vt 0.423828 0.500000
vt 0.216797 0.500000
vt 0.216797 0.500000
vt 0.216797 0.500000
vt 0.216797 0.500000
vt 0.216797 0.500000
vt 0.216797 0.500000
vt 0.923828 0.500000
vt 0.923828 0.500000
vt 0.923828 0.500000
vt 0.923828 0.500000
vt 0.923828 0.500000
vt 0.923828 0.500000
vt 0.716797 0.500000
vt 0.716797 0.500000
vt 0.716797 0.500000
vt 0.716797 0.500000
vt 0.716797 0.500000
vt 0.716797 0.500000
vt 0.423828 0.500000
vt 0.423828 0.500000
vt 0.423828 0.500000
vt 0.423828 0.500000
vt 0.423828 0.500000
vt 0.423828 0.500000
vt 0.904297 0.500000
vt 0.904297 0.500000
vt 0.904297 0.500000
vt 0.904297 0.500000
vt 0.904297 0.500000
vt 0.904297 0.500000
vt 0.923828 0.500000
vt 0.923828 0.500000
vt 0.923828 0.500000
vt 0.923828 0.500000
vt 0.923828 0.500000
vt 0.923828 0.500000
vt 0.841797 0.500000
vt 0.841797 0.500000
vt 0.841797 0.500000
vt 0.841797 0.500000
vt 0.841797 0.500000
vt 0.841797 0.500000
vt 0.216797 0.500000
vt 0.216797 0.500000
vt 0.216797 0.500000
vt 0.216797 0.500000
vt 0.216797 0.500000
vt 0.216797 0.500000
vt 0.423828 0.500000
vt 0.423828 0.500000
vt 0.423828 0.500000
vt 0.423828 0.500000
vt 0.423828 0.500000
vt 0.423828 0.500000
vt 0.904297 0.500000
vt 0.904297 0.500000
vt 0.904297 0.500000
vt 0.904297 0.500000
vt 0.904297 0.500000
vt 0.904297 0.500000
vt 0.841797 0.500000
vt 0.841797 0.500000
vt 0.841797 0.500000
vt 0.841797 0.500000
vt 0.841797 0.500000
vt 0.841797 0.500000
vt 0.216797 0.500000
vt 0.216797 0.500000
vt 0.216797 0.500000
vt 0.216797 0.500000
vt 0.216797 0.500000
vt 0.216797 0.500000
vt 0.423828 0.500000
vt 0.423828 0.500000
vt 0.423828 0.500000
vt 0.423828 0.500000
vt 0.423828 0.500000
vt 0.423828 0.500000
vt 0.904297 0.500000
vt 0.904297 0.500000
vt 0.904297 0.500000
vt 0.904297 0.500000
vt 0.904297 0.500000
vt 0.904297 0.500000
vt 0.716797 0.500000
vt 0.716797 0.500000
vt 0.716797 0.500000
vt 0.716797 0.500000
vt 0.716797 0.500000
vt 0.716797 0.500000
vt 0.216797 0.500000
vt 0.216797 0.500000
vt 0.216797 0.500000
vt 0.216797 0.500000
vt 0.216797 0.500000
vt 0.216797 0.500000
vt 0.923828 0.500000
vt 0.923828 0.500000
vt 0.923828 0.500000
vt 0.923828 0.500000
vt 0.923828 0.500000
vt 0.923828 0.500000
vt 0.841797 0.500000
vt 0.841797 0.500000
vt 0.841797 0.500000
vt 0.841797 0.500000
vt 0.841797 0.500000
vt 0.841797 0.500000
vt 0.904297 0.500000
vt 0.904297 0.500000
vt 0.904297 0.500000
vt 0.904297 0.500000
vt 0.904297 0.500000
vt 0.904297 0.500000
vt 0.716797 0.500000
vt 0.716797 0.500000
vt 0.716797 0.500000
vt 0.716797 0.500000
vt 0.716797 0.500000
vt 0.716797 0.500000
vt 0.923828 0.500000
vt 0.923828 0.500000
vt 0.923828 0.500000
vt 0.923828 0.500000
vt 0.923828 0.500000
vt 0.923828 0.500000
vt 0.841797 0.500000
vt 0.841797 0.500000
vt 0.841797 0.500000
vt 0.841797 0.500000
vt 0.841797 0.500000
vt 0.841797 0.500000
vt 0.904297 0.500000
vt 0.904297 0.500000
vt 0.904297 0.500000
vt 0.904297 0.500000
vt 0.904297 0.500000
vt 0.904297 0.500000
vt 0.716797 0.500000
vt 0.716797 0.500000
vt 0.716797 0.500000
vt 0.716797 0.500000
vt 0.716797 0.500000
vt 0.716797 0.500000
vt 0.423828 0.500000
vt 0.423828 0.500000
vt 0.423828 0.500000
vt 0.423828 0.500000
vt 0.423828 0.500000
vt 0.423828 0.500000
vn -1.0000 -0.0000 0.0000
vn 1.0000 0.0000 0.0000
vn 0.0000 -0.0000 1.0000
vn 0.0000 0.0000 -1.0000
vn 0.0000 -1.0000 -0.0000
vn 0.0000 1.0000 0.0000
s 1
f 97/1/1 98/2/1 3/3/1
f 4/4/1 2/5/1 1/6/1
f 99/7/1 102/8/1 7/9/1
f 103/10/1 6/11/1 100/12/1
f 104/13/1 101/14/1 10/15/1
f 105/16/1 5/17/1 9/18/1
f 106/19/1 109/20/1 8/21/1
f 14/22/1 13/23/1 107/24/1
f 110/25/1 108/26/1 11/27/1
f 16/28/1 12/29/1 15/30/1
f 17/31/2 114/32/2 111/33/2
f 112/34/2 18/35/2 115/36/2
f 21/37/2 113/38/2 116/39/2
f 22/40/2 19/41/2 117/42/2
f 20/43/2 121/44/2 118/45/2
f 119/46/2 24/47/2 26/48/2
f 23/49/2 120/50/2 122/51/2
f 27/52/2 25/53/2 28/54/2
f 29/55/2 124/56/2 123/57/2
f 31/58/2 30/59/2 32/60/2
f 125/61/3 126/62/3 35/63/3
f 36/64/3 34/65/3 33/66/3
f 127/67/3 130/68/3 39/69/3
f 131/70/3 38/71/3 128/72/3
f 132/73/3 129/74/3 42/75/3
f 133/76/3 37/77/3 41/78/3
f 134/79/3 137/80/3 40/81/3
f 46/82/3 45/83/3 135/84/3
f 138/85/3 136/86/3 43/87/3
f 48/88/3 44/89/3 47/90/3
f 49/91/4 142/92/4 139/93/4
f 140/94/4 50/95/4 143/96/4
f 53/97/4 141/98/4 144/99/4
f 54/100/4 51/101/4 145/102/4
f 52/103/4 149/104/4 146/105/4
f 147/106/4 56/107/4 58/108/4
f 55/109/4 148/110/4 150/111/4
f 59/112/4 57/113/4 60/114/4
f 61/115/4 152/116/4 151/117/4
f 63/118/4 62/119/4 64/120/4
f 153/121/5 154/122/5 67/123/5
f 68/124/5 66/125/5 65/126/5
f 155/127/5 158/128/5 71/129/5
f 159/130/5 70/131/5 156/132/5
f 160/133/5 157/134/5 74/135/5
f 161/136/5 69/137/5 73/138/5
f 162/139/5 165/140/5 72/141/5
f 78/142/5 77/143/5 163/144/5
f 166/145/5 164/146/5 75/147/5
f 80/148/5 76/149/5 79/150/5
f 81/151/6 170/152/6 167/153/6
f 168/154/6 82/155/6 171/156/6
f 85/157/6 169/158/6 172/159/6
f 86/160/6 83/161/6 173/162/6
f 84/163/6 177/164/6 174/165/6
f 175/166/6 88/167/6 90/168/6
f 87/169/6 176/170/6 178/171/6
f 91/172/6 89/173/6 92/174/6
f 93/175/6 180/176/6 179/177/6
f 95/178/6 94/179/6 96/180/6
